<?xml version="1.0" encoding="UTF-8" standalone="no"?>
<!DOCTYPE svg PUBLIC "-//W3C//DTD SVG 1.1//EN"
 "http://www.w3.org/Graphics/SVG/1.1/DTD/svg11.dtd">
<!-- Generated by graphviz version 14.1.5 (20260411.2331)
 -->
<!-- Pages: 1 -->
<svg width="292pt" height="344pt"
 viewBox="0.00 0.00 292.00 344.00" xmlns="http://www.w3.org/2000/svg" xmlns:xlink="http://www.w3.org/1999/xlink">
<g id="graph0" class="graph" transform="scale(1 1) rotate(0) translate(4 339.81)">
<polygon fill="white" stroke="none" points="-4,4 -4,-339.81 288.36,-339.81 288.36,4 -4,4"/>
<g id="clust1" class="cluster">
<title>clustercounty (85)</title>
<path fill="none" stroke="black" d="M76.5,-126.02C76.5,-126.02 150.5,-126.02 150.5,-126.02 156.5,-126.02 162.5,-132.02 162.5,-138.02 162.5,-138.02 162.5,-224.04 162.5,-224.04 162.5,-230.04 156.5,-236.04 150.5,-236.04 150.5,-236.04 76.5,-236.04 76.5,-236.04 70.5,-236.04 64.5,-230.04 64.5,-224.04 64.5,-224.04 64.5,-138.02 64.5,-138.02 64.5,-132.02 70.5,-126.02 76.5,-126.02"/>
<text xml:space="preserve" text-anchor="middle" x="123" y="-130.97" font-family="Times,serif" font-size="14.00">county (85)</text>
</g>
<g id="clust2" class="cluster">
<title>clusterobs (919)</title>
<path fill="none" stroke="black" d="M76.5,-8C76.5,-8 150.5,-8 150.5,-8 156.5,-8 162.5,-14 162.5,-20 162.5,-20 162.5,-106.02 162.5,-106.02 162.5,-112.02 156.5,-118.02 150.5,-118.02 150.5,-118.02 76.5,-118.02 76.5,-118.02 70.5,-118.02 64.5,-112.02 64.5,-106.02 64.5,-106.02 64.5,-20 64.5,-20 64.5,-14 70.5,-8 76.5,-8"/>
<text xml:space="preserve" text-anchor="middle" x="128.62" y="-12.95" font-family="Times,serif" font-size="14.00">obs (919)</text>
</g>
<!-- mu_alpha -->
<g id="node1" class="node">
<title>mu_alpha</title>
<ellipse fill="none" stroke="black" cx="49.5" cy="-299.93" rx="49.5" ry="35.89"/>
<text xml:space="preserve" text-anchor="middle" x="49.5" y="-308" font-family="Times,serif" font-size="14.00">mu_alpha</text>
<text xml:space="preserve" text-anchor="middle" x="49.5" y="-293.75" font-family="Times,serif" font-size="14.00">~</text>
<text xml:space="preserve" text-anchor="middle" x="49.5" y="-279.5" font-family="Times,serif" font-size="14.00">Normal</text>
</g>
<!-- alpha -->
<g id="node4" class="node">
<title>alpha</title>
<ellipse fill="none" stroke="black" cx="113.5" cy="-192.16" rx="41.01" ry="35.89"/>
<text xml:space="preserve" text-anchor="middle" x="113.5" y="-200.23" font-family="Times,serif" font-size="14.00">alpha</text>
<text xml:space="preserve" text-anchor="middle" x="113.5" y="-185.98" font-family="Times,serif" font-size="14.00">~</text>
<text xml:space="preserve" text-anchor="middle" x="113.5" y="-171.73" font-family="Times,serif" font-size="14.00">Normal</text>
</g>
<!-- mu_alpha&#45;&gt;alpha -->
<g id="edge1" class="edge">
<title>mu_alpha&#45;&gt;alpha</title>
<path fill="none" stroke="black" d="M69.05,-266.62C75.3,-256.29 82.29,-244.73 88.86,-233.88"/>
<polygon fill="black" stroke="black" points="91.76,-235.84 93.94,-225.48 85.77,-232.22 91.76,-235.84"/>
</g>
<!-- sigma_y -->
<g id="node2" class="node">
<title>sigma_y</title>
<ellipse fill="none" stroke="black" cx="228.5" cy="-192.16" rx="55.86" ry="35.89"/>
<text xml:space="preserve" text-anchor="middle" x="228.5" y="-200.23" font-family="Times,serif" font-size="14.00">sigma_y</text>
<text xml:space="preserve" text-anchor="middle" x="228.5" y="-185.98" font-family="Times,serif" font-size="14.00">~</text>
<text xml:space="preserve" text-anchor="middle" x="228.5" y="-171.73" font-family="Times,serif" font-size="14.00">Halfnormal</text>
</g>
<!-- y_obs -->
<g id="node5" class="node">
<title>y_obs</title>
<ellipse fill="lightgrey" stroke="black" cx="113.5" cy="-74.14" rx="41.01" ry="35.89"/>
<text xml:space="preserve" text-anchor="middle" x="113.5" y="-82.21" font-family="Times,serif" font-size="14.00">y_obs</text>
<text xml:space="preserve" text-anchor="middle" x="113.5" y="-67.96" font-family="Times,serif" font-size="14.00">~</text>
<text xml:space="preserve" text-anchor="middle" x="113.5" y="-53.71" font-family="Times,serif" font-size="14.00">Normal</text>
</g>
<!-- sigma_y&#45;&gt;y_obs -->
<g id="edge3" class="edge">
<title>sigma_y&#45;&gt;y_obs</title>
<path fill="none" stroke="black" d="M200.38,-161.05C189.86,-149.94 177.73,-137.31 166.5,-126.02 160.87,-120.37 154.82,-114.44 148.9,-108.7"/>
<polygon fill="black" stroke="black" points="151.68,-106.52 142.05,-102.1 146.82,-111.56 151.68,-106.52"/>
</g>
<!-- sigma_alpha -->
<g id="node3" class="node">
<title>sigma_alpha</title>
<ellipse fill="none" stroke="black" cx="177.5" cy="-299.93" rx="60.1" ry="35.89"/>
<text xml:space="preserve" text-anchor="middle" x="177.5" y="-308" font-family="Times,serif" font-size="14.00">sigma_alpha</text>
<text xml:space="preserve" text-anchor="middle" x="177.5" y="-293.75" font-family="Times,serif" font-size="14.00">~</text>
<text xml:space="preserve" text-anchor="middle" x="177.5" y="-279.5" font-family="Times,serif" font-size="14.00">Halfnormal</text>
</g>
<!-- sigma_alpha&#45;&gt;alpha -->
<g id="edge2" class="edge">
<title>sigma_alpha&#45;&gt;alpha</title>
<path fill="none" stroke="black" d="M157.42,-265.75C151.37,-255.74 144.65,-244.64 138.32,-234.18"/>
<polygon fill="black" stroke="black" points="141.36,-232.45 133.19,-225.71 135.38,-236.07 141.36,-232.45"/>
</g>
<!-- alpha&#45;&gt;y_obs -->
<g id="edge4" class="edge">
<title>alpha&#45;&gt;y_obs</title>
<path fill="none" stroke="black" d="M113.5,-156.03C113.5,-145.13 113.5,-132.94 113.5,-121.4"/>
<polygon fill="black" stroke="black" points="117,-121.65 113.5,-111.65 110,-121.65 117,-121.65"/>
</g>
</g>
</svg>
